<svg width="261" height="240" viewBox="0 0 261 240" fill="none" xmlns="http://www.w3.org/2000/svg">
<path d="M109 0L6 178H64.5L113.5 94L130.5 120L155 76L109 0Z" fill="#284E73"/>
<path d="M176.5 43L158 76.5L217 178.5H256L176.5 43Z" fill="#284E73"/>
<path d="M129.5 124.5L99 178.5H161.5L129.5 124.5Z" fill="#97D001"/>
<path d="M2.10938 208.006C2.08594 207.127 2.23242 206.324 2.54883 205.598C2.86523 204.871 3.36328 204.25 4.04297 203.734C4.73438 203.219 5.61914 202.82 6.69727 202.539C7.78711 202.246 9.09375 202.1 10.6172 202.1C12.1289 202.1 13.4238 202.246 14.502 202.539C15.5918 202.82 16.4824 203.219 17.1738 203.734C17.8652 204.25 18.3691 204.871 18.6855 205.598C19.002 206.324 19.1484 207.127 19.125 208.006L18.9141 216.549C18.9023 216.9 18.8496 217.188 18.7559 217.41C18.6621 217.621 18.5039 217.785 18.2812 217.902C18.0586 218.008 17.7598 218.078 17.3848 218.113C17.0215 218.148 16.5703 218.166 16.0312 218.166C15.4805 218.166 15.0234 218.148 14.6602 218.113C14.2969 218.078 14.0039 218.008 13.7812 217.902C13.5703 217.785 13.418 217.621 13.3242 217.41C13.2305 217.188 13.1777 216.9 13.166 216.549L12.9375 207.461C12.9258 206.945 12.8672 206.535 12.7617 206.23C12.6562 205.926 12.5039 205.691 12.3047 205.527C12.1172 205.363 11.8828 205.258 11.6016 205.211C11.3203 205.152 10.9922 205.123 10.6172 205.123C10.2422 205.123 9.91406 205.152 9.63281 205.211C9.35156 205.258 9.11133 205.363 8.91211 205.527C8.72461 205.691 8.57812 205.926 8.47266 206.23C8.36719 206.535 8.30859 206.945 8.29688 207.461L7.78711 226.797C7.77539 227.289 7.81641 227.699 7.91016 228.027C8.01562 228.355 8.17969 228.619 8.40234 228.818C8.63672 229.006 8.93555 229.141 9.29883 229.223C9.66211 229.305 10.1016 229.346 10.6172 229.346C11.1328 229.346 11.5723 229.305 11.9355 229.223C12.3105 229.141 12.6094 229.006 12.832 228.818C13.0664 228.619 13.2305 228.355 13.3242 228.027C13.418 227.699 13.459 227.289 13.4473 226.797L13.377 224.705C13.3652 224.354 13.4004 224.072 13.4824 223.861C13.5762 223.639 13.7285 223.475 13.9395 223.369C14.1621 223.252 14.4551 223.176 14.8184 223.141C15.1816 223.105 15.6328 223.088 16.1719 223.088C16.6992 223.088 17.127 223.105 17.4551 223.141C17.7949 223.176 18.0527 223.252 18.2285 223.369C18.416 223.475 18.5391 223.639 18.5977 223.861C18.6562 224.072 18.6797 224.354 18.668 224.705L18.6152 226.674C18.5918 227.436 18.4277 228.156 18.123 228.836C17.8184 229.504 17.3438 230.09 16.6992 230.594C16.0664 231.098 15.2461 231.496 14.2383 231.789C13.2422 232.07 12.0352 232.211 10.6172 232.211C9.19922 232.211 7.98633 232.064 6.97852 231.771C5.9707 231.479 5.14453 231.08 4.5 230.576C3.86719 230.072 3.39844 229.48 3.09375 228.801C2.78906 228.121 2.625 227.4 2.60156 226.639L2.10938 208.006ZM22.9746 226.885C22.9629 226.229 23.1035 225.654 23.3965 225.162C23.6895 224.658 24.0645 224.219 24.5215 223.844C24.9902 223.469 25.5176 223.152 26.1035 222.895C26.6895 222.625 27.2695 222.396 27.8438 222.209C28.582 221.963 29.3613 221.752 30.1816 221.576C31.0137 221.4 31.8223 221.248 32.6074 221.119L32.4492 215.301C32.4258 214.656 32.2617 214.182 31.957 213.877C31.6641 213.561 31.1953 213.402 30.5508 213.402C30.2461 213.402 29.9707 213.426 29.7246 213.473C29.4785 213.52 29.2617 213.613 29.0742 213.754C28.8984 213.895 28.7578 214.088 28.6523 214.334C28.5469 214.58 28.4883 214.896 28.4766 215.283L28.3535 219.273C28.3535 219.496 28.3184 219.672 28.248 219.801C28.1895 219.93 28.0664 220.029 27.8789 220.1C27.6914 220.17 27.4219 220.217 27.0703 220.24C26.7305 220.264 26.2734 220.275 25.6992 220.275C25.1719 220.275 24.7441 220.264 24.416 220.24C24.0879 220.217 23.8359 220.17 23.6602 220.1C23.4844 220.029 23.3672 219.93 23.3086 219.801C23.25 219.672 23.2148 219.496 23.2031 219.273L23.0625 215.529C23.0391 214.908 23.1445 214.357 23.3789 213.877C23.6133 213.385 23.9297 212.963 24.3281 212.611C24.7383 212.248 25.2012 211.943 25.7168 211.697C26.2441 211.451 26.7891 211.252 27.3516 211.1C27.9258 210.936 28.4941 210.824 29.0566 210.766C29.6191 210.695 30.1348 210.66 30.6035 210.66C31.6113 210.66 32.5664 210.777 33.4688 211.012C34.3828 211.234 35.1797 211.562 35.8594 211.996C36.5391 212.43 37.0723 212.963 37.459 213.596C37.8574 214.217 38.0449 214.932 38.0215 215.74L37.4766 230.998C37.4648 231.221 37.4297 231.396 37.3711 231.525C37.3242 231.654 37.2188 231.754 37.0547 231.824C36.8906 231.895 36.6562 231.941 36.3516 231.965C36.0586 231.988 35.666 232 35.1738 232C34.7168 232 34.3477 231.988 34.0664 231.965C33.7969 231.941 33.5859 231.895 33.4336 231.824C33.293 231.754 33.1934 231.654 33.1348 231.525C33.0879 231.396 33.0645 231.221 33.0645 230.998L33.0469 230.383C32.7305 230.617 32.3848 230.846 32.0098 231.068C31.6348 231.279 31.2363 231.473 30.8145 231.648C30.3926 231.812 29.9414 231.947 29.4609 232.053C28.9922 232.158 28.5 232.211 27.9844 232.211C27.1641 232.211 26.4434 232.1 25.8223 231.877C25.2012 231.643 24.6797 231.332 24.2578 230.945C23.8477 230.547 23.5371 230.084 23.3262 229.557C23.1152 229.018 23.0039 228.443 22.9922 227.834L22.9746 226.885ZM27.791 227.307C27.791 227.658 27.8438 227.963 27.9492 228.221C28.0547 228.467 28.1953 228.672 28.3711 228.836C28.5469 228.988 28.752 229.105 28.9863 229.188C29.2324 229.258 29.4961 229.293 29.7773 229.293C30.457 229.293 31.043 229.182 31.5352 228.959C32.0273 228.736 32.4492 228.479 32.8008 228.186L32.6777 223.668C32.0449 223.773 31.4883 223.896 31.0078 224.037C30.5273 224.166 30.0996 224.312 29.7246 224.477C29.1387 224.746 28.6699 225.045 28.3184 225.373C27.9668 225.689 27.791 226.105 27.791 226.621V227.307ZM42.2754 212.154C42.2754 211.908 42.2988 211.703 42.3457 211.539C42.4043 211.363 42.5215 211.229 42.6973 211.135C42.8848 211.041 43.1543 210.977 43.5059 210.941C43.8691 210.895 44.3496 210.871 44.9473 210.871C45.5449 210.871 46.0195 210.895 46.3711 210.941C46.7344 210.977 47.0039 211.041 47.1797 211.135C47.3672 211.229 47.4844 211.363 47.5312 211.539C47.5898 211.703 47.6191 211.908 47.6191 212.154L47.584 213.227C47.9121 212.852 48.2461 212.512 48.5859 212.207C48.9375 211.891 49.3066 211.621 49.6934 211.398C50.0918 211.164 50.5137 210.982 50.959 210.854C51.4043 210.725 51.8906 210.66 52.418 210.66C53.4141 210.66 54.2988 210.906 55.0723 211.398C55.8457 211.891 56.4316 212.594 56.8301 213.508C57.1816 213.098 57.5332 212.723 57.8848 212.383C58.248 212.031 58.6348 211.727 59.0449 211.469C59.4551 211.211 59.8945 211.012 60.3633 210.871C60.832 210.73 61.3477 210.66 61.9102 210.66C62.625 210.66 63.2871 210.789 63.8965 211.047C64.5176 211.305 65.0449 211.68 65.4785 212.172C65.9238 212.664 66.2637 213.262 66.498 213.965C66.7441 214.668 66.8555 215.465 66.832 216.355L66.4102 230.998C66.4102 231.221 66.3809 231.396 66.3223 231.525C66.2637 231.654 66.1523 231.754 65.9883 231.824C65.8242 231.895 65.5898 231.941 65.2852 231.965C64.9922 231.988 64.5996 232 64.1074 232C63.6152 232 63.2168 231.988 62.9121 231.965C62.6191 231.941 62.3906 231.895 62.2266 231.824C62.0742 231.754 61.9688 231.654 61.9102 231.525C61.8516 231.396 61.8223 231.221 61.8223 230.998L61.418 216.865C61.4062 216.408 61.3477 216.027 61.2422 215.723C61.1367 215.418 60.9961 215.178 60.8203 215.002C60.6445 214.826 60.4336 214.703 60.1875 214.633C59.9531 214.562 59.6953 214.527 59.4141 214.527C58.9688 214.527 58.5703 214.656 58.2188 214.914C57.8789 215.16 57.5859 215.459 57.3398 215.811V216.355L56.918 230.998C56.918 231.221 56.8887 231.396 56.8301 231.525C56.7715 231.654 56.6602 231.754 56.4961 231.824C56.332 231.895 56.0977 231.941 55.793 231.965C55.5 231.988 55.1074 232 54.6152 232C54.123 232 53.7246 231.988 53.4199 231.965C53.127 231.941 52.8984 231.895 52.7344 231.824C52.582 231.754 52.4766 231.654 52.418 231.525C52.3594 231.396 52.3301 231.221 52.3301 230.998L51.9258 216.865C51.9141 216.408 51.8555 216.027 51.75 215.723C51.6445 215.418 51.5039 215.178 51.3281 215.002C51.1523 214.826 50.9414 214.703 50.6953 214.633C50.4609 214.562 50.2031 214.527 49.9219 214.527C49.4766 214.527 49.084 214.65 48.7441 214.896C48.4043 215.143 48.1113 215.436 47.8652 215.775L47.4258 230.998C47.4258 231.221 47.3965 231.396 47.3379 231.525C47.2793 231.654 47.168 231.754 47.0039 231.824C46.8398 231.895 46.6055 231.941 46.3008 231.965C46.0078 231.988 45.6152 232 45.123 232C44.6309 232 44.2324 231.988 43.9277 231.965C43.6348 231.941 43.4062 231.895 43.2422 231.824C43.0898 231.754 42.9844 231.654 42.9258 231.525C42.8672 231.396 42.8379 231.221 42.8379 230.998L42.2754 212.154ZM70.752 212.154C70.7402 211.908 70.7578 211.703 70.8047 211.539C70.8633 211.363 70.9863 211.229 71.1738 211.135C71.3613 211.041 71.6309 210.977 71.9824 210.941C72.3457 210.895 72.8262 210.871 73.4238 210.871C74.0215 210.871 74.4961 210.895 74.8477 210.941C75.2109 210.977 75.4863 211.041 75.6738 211.135C75.8613 211.229 75.9785 211.363 76.0254 211.539C76.084 211.703 76.1074 211.908 76.0957 212.154L76.0781 212.77C76.3594 212.488 76.6582 212.225 76.9746 211.979C77.291 211.721 77.6309 211.498 77.9941 211.311C78.3574 211.111 78.7383 210.953 79.1367 210.836C79.5352 210.719 79.9629 210.66 80.4199 210.66C81.2402 210.66 81.9844 210.807 82.6523 211.1C83.3203 211.381 83.8887 211.779 84.3574 212.295C84.8379 212.811 85.2012 213.426 85.4473 214.141C85.6934 214.855 85.8047 215.635 85.7812 216.479L85.4648 226.375C85.4297 227.43 85.2891 228.332 85.043 229.082C84.7969 229.82 84.457 230.424 84.0234 230.893C83.6016 231.35 83.0859 231.684 82.4766 231.895C81.8672 232.105 81.1875 232.211 80.4375 232.211C79.4648 232.211 78.6152 232.053 77.8887 231.736C77.1621 231.408 76.5469 231.045 76.043 230.646L75.8848 238.381C75.8848 238.604 75.8555 238.779 75.7969 238.908C75.7383 239.037 75.627 239.137 75.4629 239.207C75.2988 239.277 75.0703 239.324 74.7773 239.348C74.4844 239.371 74.0918 239.383 73.5996 239.383C73.1074 239.383 72.709 239.371 72.4043 239.348C72.1113 239.324 71.8828 239.277 71.7188 239.207C71.5664 239.137 71.4609 239.037 71.4023 238.908C71.3555 238.779 71.332 238.604 71.332 238.381L70.752 212.154ZM76.0957 228.326C76.3652 228.525 76.6758 228.701 77.0273 228.854C77.3906 228.994 77.7949 229.064 78.2402 229.064C78.9902 229.064 79.5762 228.836 79.998 228.379C80.4316 227.91 80.6367 227.242 80.6133 226.375L80.3496 216.479C80.3379 216.08 80.2734 215.74 80.1562 215.459C80.0508 215.178 79.9043 214.955 79.7168 214.791C79.541 214.615 79.3359 214.492 79.1016 214.422C78.8672 214.34 78.6211 214.299 78.3633 214.299C78.0117 214.299 77.6602 214.369 77.3086 214.51C76.9688 214.65 76.6641 214.82 76.3945 215.02L76.0957 228.326ZM89.5254 212.154C89.5254 211.908 89.5488 211.703 89.5957 211.539C89.6543 211.363 89.7832 211.229 89.9824 211.135C90.1816 211.041 90.4688 210.977 90.8438 210.941C91.2305 210.895 91.7402 210.871 92.373 210.871C93.0059 210.871 93.5098 210.895 93.8848 210.941C94.2715 210.977 94.5645 211.041 94.7637 211.135C94.9629 211.229 95.0859 211.363 95.1328 211.539C95.1914 211.703 95.2207 211.908 95.2207 212.154L94.8164 226.498C94.8047 227.014 94.8633 227.436 94.9922 227.764C95.1211 228.092 95.291 228.355 95.502 228.555C95.7246 228.742 95.9707 228.877 96.2402 228.959C96.5098 229.029 96.7852 229.064 97.0664 229.064C97.5703 229.064 98.0215 228.959 98.4199 228.748C98.8184 228.525 99.1699 228.279 99.4746 228.01L99.0176 212.154C99.0176 211.908 99.041 211.703 99.0879 211.539C99.1465 211.363 99.2754 211.229 99.4746 211.135C99.6738 211.041 99.9609 210.977 100.336 210.941C100.723 210.895 101.232 210.871 101.865 210.871C102.498 210.871 103.002 210.895 103.377 210.941C103.764 210.977 104.057 211.041 104.256 211.135C104.455 211.229 104.578 211.363 104.625 211.539C104.684 211.703 104.713 211.908 104.713 212.154L104.168 230.998C104.168 231.221 104.139 231.396 104.08 231.525C104.021 231.654 103.91 231.754 103.746 231.824C103.582 231.895 103.348 231.941 103.043 231.965C102.75 231.988 102.357 232 101.865 232C101.408 232 101.039 231.988 100.758 231.965C100.488 231.941 100.277 231.895 100.125 231.824C99.9844 231.754 99.8848 231.654 99.8262 231.525C99.7793 231.396 99.7559 231.221 99.7559 230.998L99.7207 230.172C99.4629 230.406 99.1699 230.646 98.8418 230.893C98.5137 231.139 98.1387 231.361 97.7168 231.561C97.3066 231.748 96.8496 231.9 96.3457 232.018C95.8535 232.146 95.3086 232.211 94.7109 232.211C93.2578 232.211 92.1152 231.795 91.2832 230.963C90.4512 230.131 90.0117 228.906 89.9648 227.289L89.5254 212.154ZM109.055 226.885C109.055 226.662 109.084 226.48 109.143 226.34C109.201 226.199 109.312 226.088 109.477 226.006C109.652 225.912 109.898 225.848 110.215 225.812C110.531 225.777 110.947 225.76 111.463 225.76C111.99 225.76 112.412 225.777 112.729 225.812C113.045 225.848 113.285 225.912 113.449 226.006C113.625 226.088 113.742 226.205 113.801 226.357C113.859 226.498 113.889 226.68 113.889 226.902V227.764C113.889 228.479 114.094 228.977 114.504 229.258C114.926 229.539 115.518 229.68 116.279 229.68C117.041 229.68 117.568 229.521 117.861 229.205C118.166 228.877 118.318 228.338 118.318 227.588V226.727C118.318 226.434 118.277 226.182 118.195 225.971C118.125 225.76 118.014 225.578 117.861 225.426C117.709 225.262 117.51 225.121 117.264 225.004C117.029 224.887 116.754 224.775 116.438 224.67L111.234 222.842C110.402 222.549 109.781 222.068 109.371 221.4C108.973 220.732 108.756 219.912 108.721 218.939L108.615 215.863C108.58 214.926 108.773 214.129 109.195 213.473C109.617 212.816 110.186 212.283 110.9 211.873C111.615 211.451 112.436 211.146 113.361 210.959C114.287 210.76 115.236 210.66 116.209 210.66C117.158 210.66 118.084 210.742 118.986 210.906C119.889 211.07 120.686 211.346 121.377 211.732C122.08 212.107 122.631 212.611 123.029 213.244C123.439 213.865 123.627 214.645 123.592 215.582L123.451 219.273C123.439 219.496 123.398 219.672 123.328 219.801C123.27 219.93 123.152 220.029 122.977 220.1C122.801 220.17 122.549 220.217 122.221 220.24C121.904 220.264 121.482 220.275 120.955 220.275C120.381 220.275 119.918 220.264 119.566 220.24C119.227 220.217 118.963 220.17 118.775 220.1C118.588 220.029 118.459 219.93 118.389 219.801C118.33 219.672 118.301 219.496 118.301 219.273L118.178 215.283C118.166 214.896 118.107 214.58 118.002 214.334C117.908 214.088 117.773 213.895 117.598 213.754C117.434 213.613 117.234 213.52 117 213.473C116.766 213.426 116.502 213.402 116.209 213.402C115.916 213.402 115.646 213.432 115.4 213.49C115.166 213.537 114.961 213.631 114.785 213.771C114.609 213.912 114.469 214.105 114.363 214.352C114.27 214.586 114.217 214.891 114.205 215.266L114.082 219.08C114.059 219.654 114.176 220.129 114.434 220.504C114.703 220.867 115.143 221.148 115.752 221.348L120.182 222.93C120.779 223.141 121.271 223.369 121.658 223.615C122.045 223.861 122.35 224.148 122.572 224.477C122.807 224.805 122.965 225.18 123.047 225.602C123.129 226.012 123.158 226.498 123.135 227.061L123.1 227.869C123.064 228.678 122.854 229.357 122.467 229.908C122.092 230.459 121.588 230.91 120.955 231.262C120.334 231.602 119.619 231.848 118.811 232C118.014 232.141 117.176 232.211 116.297 232.211C115.441 232.211 114.58 232.141 113.713 232C112.857 231.871 112.084 231.637 111.393 231.297C110.701 230.945 110.139 230.477 109.705 229.891C109.271 229.293 109.055 228.531 109.055 227.605V226.885ZM136.266 208.006C136.242 207.127 136.389 206.324 136.705 205.598C137.021 204.871 137.52 204.25 138.199 203.734C138.891 203.219 139.775 202.82 140.854 202.539C141.943 202.246 143.25 202.1 144.773 202.1C146.285 202.1 147.58 202.246 148.658 202.539C149.748 202.82 150.639 203.219 151.33 203.734C152.021 204.25 152.525 204.871 152.842 205.598C153.158 206.324 153.305 207.127 153.281 208.006L153.07 216.549C153.059 216.9 153.006 217.188 152.912 217.41C152.818 217.621 152.66 217.785 152.438 217.902C152.215 218.008 151.916 218.078 151.541 218.113C151.178 218.148 150.727 218.166 150.188 218.166C149.637 218.166 149.18 218.148 148.816 218.113C148.453 218.078 148.16 218.008 147.938 217.902C147.727 217.785 147.574 217.621 147.48 217.41C147.387 217.188 147.334 216.9 147.322 216.549L147.094 207.461C147.082 206.945 147.023 206.535 146.918 206.23C146.812 205.926 146.66 205.691 146.461 205.527C146.273 205.363 146.039 205.258 145.758 205.211C145.477 205.152 145.148 205.123 144.773 205.123C144.398 205.123 144.07 205.152 143.789 205.211C143.508 205.258 143.268 205.363 143.068 205.527C142.881 205.691 142.734 205.926 142.629 206.23C142.523 206.535 142.465 206.945 142.453 207.461L141.943 226.797C141.932 227.289 141.973 227.699 142.066 228.027C142.172 228.355 142.336 228.619 142.559 228.818C142.793 229.006 143.092 229.141 143.455 229.223C143.818 229.305 144.258 229.346 144.773 229.346C145.289 229.346 145.729 229.305 146.092 229.223C146.467 229.141 146.766 229.006 146.988 228.818C147.223 228.619 147.387 228.355 147.48 228.027C147.574 227.699 147.615 227.289 147.604 226.797L147.533 224.705C147.521 224.354 147.557 224.072 147.639 223.861C147.732 223.639 147.885 223.475 148.096 223.369C148.318 223.252 148.611 223.176 148.975 223.141C149.338 223.105 149.789 223.088 150.328 223.088C150.855 223.088 151.283 223.105 151.611 223.141C151.951 223.176 152.209 223.252 152.385 223.369C152.572 223.475 152.695 223.639 152.754 223.861C152.812 224.072 152.836 224.354 152.824 224.705L152.771 226.674C152.748 227.436 152.584 228.156 152.279 228.836C151.975 229.504 151.5 230.09 150.855 230.594C150.223 231.098 149.402 231.496 148.395 231.789C147.398 232.07 146.191 232.211 144.773 232.211C143.355 232.211 142.143 232.064 141.135 231.771C140.127 231.479 139.301 231.08 138.656 230.576C138.023 230.072 137.555 229.48 137.25 228.801C136.945 228.121 136.781 227.4 136.758 226.639L136.266 208.006ZM157.166 216.004C157.131 215.066 157.318 214.264 157.729 213.596C158.15 212.916 158.713 212.359 159.416 211.926C160.131 211.492 160.951 211.176 161.877 210.977C162.803 210.766 163.752 210.66 164.725 210.66C165.697 210.66 166.646 210.766 167.572 210.977C168.498 211.176 169.312 211.492 170.016 211.926C170.73 212.359 171.293 212.916 171.703 213.596C172.125 214.264 172.318 215.066 172.283 216.004L171.879 227.131C171.844 228.092 171.621 228.9 171.211 229.557C170.801 230.201 170.268 230.723 169.611 231.121C168.955 231.508 168.205 231.789 167.361 231.965C166.518 232.129 165.645 232.211 164.742 232.211C163.828 232.211 162.949 232.129 162.105 231.965C161.262 231.789 160.506 231.508 159.838 231.121C159.182 230.723 158.648 230.201 158.238 229.557C157.828 228.912 157.605 228.109 157.57 227.148L157.166 216.004ZM162.387 227.289C162.375 227.734 162.41 228.109 162.492 228.414C162.586 228.719 162.727 228.965 162.914 229.152C163.113 229.34 163.359 229.475 163.652 229.557C163.957 229.639 164.314 229.68 164.725 229.68C165.545 229.68 166.143 229.504 166.518 229.152C166.904 228.801 167.086 228.174 167.062 227.271L166.711 215.705C166.699 215.213 166.641 214.814 166.535 214.51C166.441 214.205 166.307 213.971 166.131 213.807C165.955 213.643 165.75 213.537 165.516 213.49C165.281 213.432 165.018 213.402 164.725 213.402C164.432 213.402 164.168 213.432 163.934 213.49C163.699 213.537 163.494 213.643 163.318 213.807C163.143 213.971 163.002 214.205 162.896 214.51C162.803 214.814 162.75 215.213 162.738 215.705L162.387 227.289ZM176.361 212.154C176.361 211.908 176.385 211.703 176.432 211.539C176.49 211.363 176.607 211.229 176.783 211.135C176.971 211.041 177.24 210.977 177.592 210.941C177.955 210.895 178.436 210.871 179.033 210.871C179.631 210.871 180.105 210.895 180.457 210.941C180.82 210.977 181.09 211.041 181.266 211.135C181.453 211.229 181.57 211.363 181.617 211.539C181.676 211.703 181.705 211.908 181.705 212.154L181.67 213.227C181.998 212.852 182.332 212.512 182.672 212.207C183.023 211.891 183.393 211.621 183.779 211.398C184.178 211.164 184.6 210.982 185.045 210.854C185.49 210.725 185.977 210.66 186.504 210.66C187.219 210.66 187.881 210.789 188.49 211.047C189.111 211.305 189.639 211.68 190.072 212.172C190.518 212.664 190.857 213.262 191.092 213.965C191.338 214.668 191.449 215.465 191.426 216.355L191.004 230.998C191.004 231.221 190.975 231.396 190.916 231.525C190.857 231.654 190.746 231.754 190.582 231.824C190.418 231.895 190.184 231.941 189.879 231.965C189.586 231.988 189.193 232 188.701 232C188.209 232 187.811 231.988 187.506 231.965C187.213 231.941 186.984 231.895 186.82 231.824C186.668 231.754 186.562 231.654 186.504 231.525C186.445 231.396 186.416 231.221 186.416 230.998L186.012 216.865C186 216.408 185.941 216.027 185.836 215.723C185.73 215.418 185.59 215.178 185.414 215.002C185.238 214.826 185.027 214.703 184.781 214.633C184.547 214.562 184.289 214.527 184.008 214.527C183.562 214.527 183.17 214.65 182.83 214.896C182.49 215.143 182.197 215.436 181.951 215.775L181.512 230.998C181.512 231.221 181.482 231.396 181.424 231.525C181.365 231.654 181.254 231.754 181.09 231.824C180.926 231.895 180.691 231.941 180.387 231.965C180.094 231.988 179.701 232 179.209 232C178.717 232 178.318 231.988 178.014 231.965C177.721 231.941 177.492 231.895 177.328 231.824C177.176 231.754 177.07 231.654 177.012 231.525C176.953 231.396 176.924 231.221 176.924 230.998L176.361 212.154ZM195.346 212.154C195.346 211.908 195.369 211.703 195.416 211.539C195.475 211.363 195.592 211.229 195.768 211.135C195.955 211.041 196.225 210.977 196.576 210.941C196.939 210.895 197.42 210.871 198.018 210.871C198.615 210.871 199.09 210.895 199.441 210.941C199.805 210.977 200.074 211.041 200.25 211.135C200.438 211.229 200.555 211.363 200.602 211.539C200.66 211.703 200.689 211.908 200.689 212.154L200.654 213.227C200.982 212.852 201.316 212.512 201.656 212.207C202.008 211.891 202.377 211.621 202.764 211.398C203.162 211.164 203.584 210.982 204.029 210.854C204.475 210.725 204.961 210.66 205.488 210.66C206.203 210.66 206.865 210.789 207.475 211.047C208.096 211.305 208.623 211.68 209.057 212.172C209.502 212.664 209.842 213.262 210.076 213.965C210.322 214.668 210.434 215.465 210.41 216.355L209.988 230.998C209.988 231.221 209.959 231.396 209.9 231.525C209.842 231.654 209.73 231.754 209.566 231.824C209.402 231.895 209.168 231.941 208.863 231.965C208.57 231.988 208.178 232 207.686 232C207.193 232 206.795 231.988 206.49 231.965C206.197 231.941 205.969 231.895 205.805 231.824C205.652 231.754 205.547 231.654 205.488 231.525C205.43 231.396 205.4 231.221 205.4 230.998L204.996 216.865C204.984 216.408 204.926 216.027 204.82 215.723C204.715 215.418 204.574 215.178 204.398 215.002C204.223 214.826 204.012 214.703 203.766 214.633C203.531 214.562 203.273 214.527 202.992 214.527C202.547 214.527 202.154 214.65 201.814 214.896C201.475 215.143 201.182 215.436 200.936 215.775L200.496 230.998C200.496 231.221 200.467 231.396 200.408 231.525C200.35 231.654 200.238 231.754 200.074 231.824C199.91 231.895 199.676 231.941 199.371 231.965C199.078 231.988 198.686 232 198.193 232C197.701 232 197.303 231.988 196.998 231.965C196.705 231.941 196.477 231.895 196.312 231.824C196.16 231.754 196.055 231.654 195.996 231.525C195.938 231.396 195.908 231.221 195.908 230.998L195.346 212.154ZM214.154 216.004C214.119 215.066 214.312 214.264 214.734 213.596C215.168 212.916 215.742 212.359 216.457 211.926C217.184 211.492 218.01 211.176 218.936 210.977C219.873 210.766 220.828 210.66 221.801 210.66C222.727 210.66 223.635 210.766 224.525 210.977C225.416 211.176 226.207 211.492 226.898 211.926C227.59 212.359 228.135 212.916 228.533 213.596C228.943 214.264 229.131 215.066 229.096 216.004L228.832 222.49C228.82 222.713 228.779 222.889 228.709 223.018C228.65 223.146 228.533 223.246 228.357 223.316C228.182 223.387 227.93 223.434 227.602 223.457C227.285 223.48 226.863 223.492 226.336 223.492H219.48L219.375 227.289C219.363 227.734 219.404 228.109 219.498 228.414C219.604 228.719 219.756 228.965 219.955 229.152C220.154 229.34 220.4 229.475 220.693 229.557C220.986 229.639 221.32 229.68 221.695 229.68C222.445 229.68 222.996 229.516 223.348 229.188C223.699 228.859 223.875 228.279 223.875 227.447V226.902C223.875 226.68 223.904 226.498 223.963 226.357C224.021 226.205 224.133 226.088 224.297 226.006C224.473 225.912 224.719 225.848 225.035 225.812C225.352 225.777 225.773 225.76 226.301 225.76C226.816 225.76 227.232 225.777 227.549 225.812C227.865 225.848 228.105 225.912 228.27 226.006C228.445 226.088 228.557 226.199 228.604 226.34C228.662 226.48 228.691 226.662 228.691 226.885V227.658C228.691 228.584 228.492 229.34 228.094 229.926C227.695 230.512 227.168 230.975 226.512 231.314C225.867 231.654 225.123 231.889 224.279 232.018C223.447 232.146 222.592 232.211 221.713 232.211C220.822 232.211 219.955 232.129 219.111 231.965C218.268 231.789 217.512 231.508 216.844 231.121C216.188 230.723 215.648 230.201 215.227 229.557C214.816 228.912 214.594 228.109 214.559 227.148L214.154 216.004ZM223.875 220.855L223.699 215.705C223.688 215.213 223.629 214.814 223.523 214.51C223.43 214.205 223.295 213.971 223.119 213.807C222.955 213.643 222.756 213.537 222.521 213.49C222.299 213.432 222.059 213.402 221.801 213.402C221.508 213.402 221.238 213.432 220.992 213.49C220.746 213.537 220.529 213.643 220.342 213.807C220.166 213.971 220.02 214.205 219.902 214.51C219.797 214.814 219.738 215.213 219.727 215.705L219.568 220.855H223.875ZM232.822 216.004C232.787 215.066 232.975 214.264 233.385 213.596C233.807 212.916 234.369 212.359 235.072 211.926C235.787 211.492 236.607 211.176 237.533 210.977C238.459 210.766 239.408 210.66 240.381 210.66C241.377 210.66 242.338 210.766 243.264 210.977C244.189 211.176 245.004 211.492 245.707 211.926C246.41 212.359 246.967 212.916 247.377 213.596C247.787 214.264 247.975 215.066 247.939 216.004L247.764 221.471C247.752 221.693 247.711 221.869 247.641 221.998C247.57 222.127 247.441 222.227 247.254 222.297C247.066 222.367 246.803 222.414 246.463 222.438C246.123 222.461 245.684 222.473 245.145 222.473C244.594 222.473 244.148 222.461 243.809 222.438C243.469 222.414 243.205 222.367 243.018 222.297C242.83 222.227 242.701 222.127 242.631 221.998C242.572 221.869 242.537 221.693 242.525 221.471L242.367 215.705C242.355 215.213 242.297 214.814 242.191 214.51C242.098 214.205 241.963 213.971 241.787 213.807C241.611 213.643 241.406 213.537 241.172 213.49C240.938 213.432 240.674 213.402 240.381 213.402C240.088 213.402 239.824 213.432 239.59 213.49C239.355 213.537 239.15 213.643 238.975 213.807C238.799 213.971 238.658 214.205 238.553 214.51C238.459 214.814 238.406 215.213 238.395 215.705L238.043 227.289C238.031 227.734 238.066 228.109 238.148 228.414C238.242 228.719 238.383 228.965 238.57 229.152C238.77 229.34 239.016 229.475 239.309 229.557C239.613 229.639 239.971 229.68 240.381 229.68C241.201 229.68 241.793 229.516 242.156 229.188C242.531 228.859 242.719 228.279 242.719 227.447V226.902C242.719 226.68 242.748 226.498 242.807 226.357C242.865 226.205 242.977 226.088 243.141 226.006C243.316 225.912 243.562 225.848 243.879 225.812C244.195 225.777 244.617 225.76 245.145 225.76C245.66 225.76 246.076 225.777 246.393 225.812C246.709 225.848 246.949 225.912 247.113 226.006C247.289 226.088 247.406 226.199 247.465 226.34C247.523 226.48 247.553 226.662 247.553 226.885V227.307C247.553 228.232 247.348 229.012 246.938 229.645C246.527 230.266 245.988 230.77 245.32 231.156C244.652 231.531 243.891 231.801 243.035 231.965C242.18 232.129 241.301 232.211 240.398 232.211C239.484 232.211 238.605 232.129 237.762 231.965C236.918 231.789 236.162 231.508 235.494 231.121C234.838 230.723 234.305 230.201 233.895 229.557C233.484 228.912 233.262 228.109 233.227 227.148L232.822 216.004ZM252.492 215.723H251.508C251.203 215.723 250.963 215.699 250.787 215.652C250.623 215.605 250.5 215.518 250.418 215.389C250.336 215.26 250.283 215.084 250.26 214.861C250.248 214.627 250.242 214.328 250.242 213.965C250.242 213.637 250.248 213.373 250.26 213.174C250.283 212.963 250.336 212.799 250.418 212.682C250.5 212.564 250.623 212.488 250.787 212.453C250.963 212.406 251.203 212.383 251.508 212.383H252.404L252.299 207.479C252.299 207.232 252.322 207.027 252.369 206.863C252.428 206.688 252.557 206.553 252.756 206.459C252.955 206.365 253.242 206.301 253.617 206.266C254.004 206.219 254.514 206.195 255.146 206.195C255.779 206.195 256.283 206.219 256.658 206.266C257.045 206.301 257.338 206.365 257.537 206.459C257.736 206.553 257.859 206.688 257.906 206.863C257.965 207.027 257.994 207.232 257.994 207.479L257.871 212.383H258.785C259.09 212.383 259.324 212.406 259.488 212.453C259.664 212.488 259.793 212.564 259.875 212.682C259.957 212.799 260.004 212.963 260.016 213.174C260.039 213.373 260.051 213.637 260.051 213.965C260.051 214.328 260.039 214.627 260.016 214.861C260.004 215.084 259.957 215.26 259.875 215.389C259.793 215.518 259.664 215.605 259.488 215.652C259.324 215.699 259.09 215.723 258.785 215.723H257.801L257.449 230.998C257.449 231.221 257.42 231.396 257.361 231.525C257.303 231.654 257.191 231.754 257.027 231.824C256.863 231.895 256.629 231.941 256.324 231.965C256.031 231.988 255.639 232 255.146 232C254.654 232 254.256 231.988 253.951 231.965C253.658 231.941 253.43 231.895 253.266 231.824C253.113 231.754 253.008 231.654 252.949 231.525C252.891 231.396 252.861 231.221 252.861 230.998L252.492 215.723Z" fill="#284E73"/>
</svg>
